<svg xmlns="http://www.w3.org/2000/svg" width="43.93" height="48.823" viewBox="0 0 43.93 48.823">
  <path id="settings" d="M11.952,36.8a6.1,6.1,0,0,0,8.336,2.242l.007,0,.905-.524a18.249,18.249,0,0,0,5.793,3.345V42.9a6.1,6.1,0,0,0,12.206,0V41.855a18.213,18.213,0,0,0,5.793-3.349l.91.526A6.107,6.107,0,0,0,52,28.453l-.9-.519a18.539,18.539,0,0,0,0-6.694l.9-.522a6.106,6.106,0,0,0-6.1-10.577L45,10.662a18.228,18.228,0,0,0-5.8-3.338V6.281a6.1,6.1,0,0,0-12.206,0V7.324A18.213,18.213,0,0,0,21.2,10.673l-.91-.528a6.107,6.107,0,0,0-6.1,10.58l.9.522a18.526,18.526,0,0,0,0,6.691l-.9.522A6.114,6.114,0,0,0,11.952,36.8M33.1,16.453a8.137,8.137,0,1,1-8.138,8.138A8.139,8.139,0,0,1,33.1,16.453" transform="translate(-11.131 -0.178)" fill="#fff"/>
</svg>
